<?xml version="1.0" encoding="utf-8"?>
<!-- Generator: Adobe Illustrator 20.1.0, SVG Export Plug-In . SVG Version: 6.00 Build 0)  -->
<svg version="1.1"
	 id="svg2" inkscape:version="0.48.0 r9654" sodipodi:docname="logo.svg" xmlns:cc="http://creativecommons.org/ns#" xmlns:dc="http://purl.org/dc/elements/1.1/" xmlns:inkscape="http://www.inkscape.org/namespaces/inkscape" xmlns:rdf="http://www.w3.org/1999/02/22-rdf-syntax-ns#" xmlns:sodipodi="http://sodipodi.sourceforge.net/DTD/sodipodi-0.dtd" xmlns:svg="http://www.w3.org/2000/svg"
	 xmlns="http://www.w3.org/2000/svg" xmlns:xlink="http://www.w3.org/1999/xlink" x="0px" y="0px" viewBox="0 0 16 16"
	 style="enable-background:new 0 0 16 16;" xml:space="preserve">
<style type="text/css">
	.st0{fill:#D33833;}
	.st1{fill:#EF3D3A;}
	.st2{fill:#231F20;}
	.st3{fill:#F0D6B7;}
	.st4{fill:#335061;}
	.st5{fill:#6D6B6D;}
	.st6{fill:#DCD9D8;}
	.st7{fill:#F7E4CD;}
	.st8{fill:#49728B;}
	.st9{fill:#FFFFFF;}
	.st10{fill:none;stroke:#D33833;stroke-width:8.992662e-02;}
	.st11{fill:#81B0C4;}
	.st12{fill:#1D1919;}
</style>
<sodipodi:namedview  bordercolor="#666666" borderopacity="1" gridtolerance="10" guidetolerance="10" id="namedview4" inkscape:current-layer="g10" inkscape:cx="-65.859116" inkscape:cy="172.53076" inkscape:pageopacity="0" inkscape:pageshadow="2" inkscape:window-height="844" inkscape:window-maximized="0" inkscape:window-width="1500" inkscape:window-x="2189" inkscape:window-y="496" inkscape:zoom="1" objecttolerance="10" pagecolor="#ffffff" showgrid="false">
	</sodipodi:namedview>
<g id="g10" transform="matrix(1.25,0,0,-1.25,0,312)" inkscape:groupmode="layer" inkscape:label="ink_ext_XXXXXX">
	<g id="g3393">
		<path id="path22" inkscape:connector-curvature="0" class="st0" d="M10.3,243.6c0-2.2-1.8-4-3.9-4c-2.2,0-3.9,1.8-3.9,4
			c0,2.2,1.8,4,3.9,4C8.6,247.6,10.3,245.8,10.3,243.6"/>
		<path id="path24" inkscape:connector-curvature="0" class="st1" d="M2.6,242.6c0,0-0.3,4.2,3.6,4.3l-0.3,0.4l-2.1-0.7L3.2,246
			l-0.5-1l-0.3-1.2l0.1-0.8"/>
		<path id="path26" inkscape:connector-curvature="0" class="st2" d="M3.7,246.3c-0.7-0.7-1.1-1.7-1.1-2.8l0,0
			c0-1.1,0.4-2.1,1.1-2.8l0,0c0.7-0.7,1.6-1.1,2.7-1.1l0,0c1.1,0,2,0.4,2.7,1.1l0,0c0.7,0.7,1.1,1.7,1.1,2.8l0,0
			c0,1.1-0.4,2.1-1.1,2.8l0,0c-0.7,0.7-1.6,1.1-2.7,1.1l0,0C5.3,247.5,4.4,247,3.7,246.3L3.7,246.3z M3.5,240.6
			c-0.7,0.8-1.2,1.8-1.2,2.9l0,0c0,1.1,0.5,2.2,1.2,2.9l0,0c0.7,0.8,1.7,1.2,2.9,1.2l0,0c1.1,0,2.1-0.5,2.9-1.2l0,0
			c0.7-0.8,1.2-1.8,1.2-2.9l0,0c0-1.1-0.5-2.2-1.2-2.9l0,0c-0.7-0.8-1.7-1.2-2.9-1.2l0,0C5.3,239.4,4.3,239.9,3.5,240.6L3.5,240.6"
			/>
		<path id="path28" inkscape:connector-curvature="0" class="st3" d="M8.1,243.6l-0.6-0.1l-0.8-0.1l-0.5,0l-0.5,0l-0.4,0.1l-0.3,0.4
			l-0.3,0.8l-0.1,0.2l-0.4,0.1L4,245.3l-0.1,0.5l0.2,0.4l0.4,0.1l0.3-0.1l0.1-0.3l0.2,0l0.1,0.1L5,246.3l0,0.4l0.1,0.6l0,0.3
			l0.3,0.4l0.5,0.3l0.8,0.4l0.9-0.1l0.8-0.6l0.4-0.6l0.2-0.4l0.1-1.1l-0.2-0.9l-0.3-0.8l-0.3-0.4"/>
		<path id="path30" inkscape:connector-curvature="0" class="st4" d="M7.5,241l-2.1-0.1v-0.4l0.2-1.3l-0.1-0.1L4,239.7l-0.1,0.2
			l-0.1,1.7l-0.3,1l-0.1,0.2l1.2,0.8l0.4,0.1l0.3-0.4l0.3-0.3l0.3-0.1l0.1,0l0.2-0.8l0.1-0.2l0.3,0.1l-0.2-0.5l1.3-0.6L7.5,241"/>
		<path id="path32" inkscape:connector-curvature="0" class="st5" d="M4,246.2l0.4,0.1l0.3-0.1l0.1-0.3l0.2,0l0,0.2L5,246.4l0.1,0.8
			L5,247.7l0.3,0.3l0.6,0.5l-0.2,0.2l-0.8-0.4L4.5,248l-0.2-0.4L4,247.2l-0.1-0.5L4,246.2"/>
		<path id="path34" inkscape:connector-curvature="0" class="st6" d="M4.6,247.6c0,0,0.2,0.6,1.1,0.8c0.9,0.3,0,0.2,0,0.2l-1-0.4
			l-0.4-0.4l-0.2-0.3L4.6,247.6"/>
		<path id="path36" inkscape:connector-curvature="0" class="st6" d="M4.2,246.3c0,0-0.3,1,0.9,1.2l0,0.2l-0.8-0.2l-0.2-0.8l0.1-0.5
			L4.2,246.3"/>
		<path id="path38" inkscape:connector-curvature="0" class="st7" d="M4.6,244.9l0.2,0.2c0,0,0.1,0,0.1-0.1c0-0.1,0.1-1,0.7-1.6
			c0.1,0-0.5,0.1-0.5,0.1l-0.5,0.7"/>
		<path id="path40" inkscape:connector-curvature="0" class="st7" d="M7.4,245.2c0,0,0,0.5,0.2,0.4c0.1,0,0.1-0.2,0.1-0.2
			S7.4,245.3,7.4,245.2"/>
		<path id="path42" inkscape:connector-curvature="0" class="st7" d="M8.6,246.9c0,0-0.2-0.1-0.3-0.3c0-0.2,0.3,0,0.3,0"/>
		<path id="path44" inkscape:connector-curvature="0" class="st7" d="M6.8,246.8c0,0-0.3,0-0.3-0.3c0-0.2,0.4-0.2,0.5-0.1"/>
		<path id="path46" inkscape:connector-curvature="0" class="st7" d="M4.8,245.9c0,0-0.6,0.3-0.6,0c-0.1-0.3-0.2-0.6,0.1-0.9
			L4.1,245l-0.2,0.5l-0.1,0.4l0.3,0.4l0.4,0l0.2-0.2L4.8,245.9"/>
		<path id="path48" inkscape:connector-curvature="0" class="st7" d="M5.1,246.8c0,0,0.3,1.3,1.5,1.6c1.1,0.2,1.6,0,1.8-0.3
			c0,0-0.9,1.1-1.8,0.8c-0.9-0.3-1.6-1-1.5-1.4C5.1,246.8,5.1,246.8,5.1,246.8"/>
		<path id="path50" inkscape:connector-curvature="0" class="st7" d="M8.5,247.9c0,0-0.4,0-0.4-0.4c0,0,0-0.1,0-0.1
			c0,0,0.3,0.4,0.6,0.2"/>
		<path id="path52" inkscape:connector-curvature="0" class="st7" d="M6.6,247.4c0,0-0.1,0.6-0.6,0.3c-0.3-0.2-0.3-0.5-0.2-0.6
			c0.1-0.1,0-0.2,0.1-0.1c0,0.1,0,0.4,0.2,0.4C6.3,247.5,6.5,247.6,6.6,247.4"/>
		<path id="path54" inkscape:connector-curvature="0" class="st8" d="M5.2,243.4l-1.4-0.6c0,0,0.6-2.3,0.3-3l-0.2,0.1l0,0.9
			l-0.4,1.7l-0.2,0.5l1.5,1L5.2,243.4"/>
		<path id="path56" inkscape:connector-curvature="0" class="st8" d="M5.4,242.1l0.2-0.2v-0.9H5.3c0,0,0,0.6,0,0.7
			C5.3,241.7,5.3,242,5.4,242.1"/>
		<path id="path58" inkscape:connector-curvature="0" class="st8" d="M5.4,240.8l-0.7,0l0.2-0.1l0.5-0.1"/>
		<path id="path60" inkscape:connector-curvature="0" class="st4" d="M7.7,240.9l0.6,0l0.1-1.4l-0.6-0.1L7.7,240.9"/>
		<path id="path62" inkscape:connector-curvature="0" class="st4" d="M7.8,240.9l0.8,0c0,0,0.3,0.9,0.3,0.9c0,0,0.3,1.3,0.3,1.3
			l-0.7,0.7L8.5,244l-0.4-0.4v-1.4L7.8,240.9"/>
		<path id="path64" inkscape:connector-curvature="0" class="st8" d="M8.2,241.1l-0.5-0.1l0.1-0.4c0.2-0.1,0.5,0.1,0.5,0.1"/>
		<path id="path66" inkscape:connector-curvature="0" class="st8" d="M8.2,243.7l1-0.8l0,0.4L8.5,244L8.2,243.7"/>
		<path id="path68" inkscape:connector-curvature="0" class="st9" d="M5.9,238l-0.3,1.3l-0.2,0.9l0,0.7l1.4,0.1l0.9,0l-0.1-1.6
			l0.1-1.2l0-0.2l-1.1-0.1L5.9,238"/>
		<path id="path70" inkscape:connector-curvature="0" class="st6" d="M7.5,241c0,0-0.1-1.6,0.1-2.7c0,0-0.4-0.3-1.1-0.4l1.3,0
			l0.1,0.1l-0.2,2.5l0,0.5"/>
		<path id="path72" inkscape:connector-curvature="0" class="st9" d="M8.4,239.7l0.6,0.2l1.1,0.1l0.2,0.5l-0.3,0.9l-0.3,0l-0.5-0.1
			L8.7,241l-0.2,0L8.2,241"/>
		<path id="path74" inkscape:connector-curvature="0" class="st6" d="M8.4,240c0,0,0.4,0.2,0.4,0.2L8.7,241l0.2,0.1
			c0,0,0.1-0.8,0.1-0.9c0,0,0.8,0,0.9,0c0,0,0.2,0.3,0.1,0.7l0.2-0.5l0-0.3l-0.2-0.4l-0.3-0.1l-0.4,0l-0.1,0.2l-0.5-0.1l-0.2-0.1"/>
		<path id="path76" inkscape:connector-curvature="0" class="st9" d="M7.8,241.1l-0.3,0.8l-0.3,0.5c0,0,0.1,0.2,0.2,0.2
			c0.1,0,0.3,0,0.3,0l0.3-0.1l0-0.6L7.8,241.1"/>
		<path id="path78" inkscape:connector-curvature="0" class="st6" d="M7.9,241.4c0,0-0.4,0.8-0.4,0.9c0,0,0.1,0.2,0.2,0.1
			s0.3-0.2,0.3-0.2v0.3l-0.5,0.1l-0.3,0l0.6-1.4l0.1,0"/>
		<path id="path80" inkscape:connector-curvature="0" class="st9" d="M6,243.3l-0.4,0l-0.4,0.1v-0.1l0.2-0.2l0.6-0.3"/>
		<path id="path82" inkscape:connector-curvature="0" class="st6" d="M5.4,243.3c0,0,0.5-0.2,0.6-0.1l0-0.2L5.6,243L5.4,243.3
			L5.4,243.3"/>
		<path id="path84" inkscape:connector-curvature="0" class="st0" d="M8.4,242.6c-0.3,0-0.5,0-0.7,0.1c0,0.1,0,0.2,0,0.2
			c0.1,0,0.2,0,0.2,0c-0.1,0-0.2,0.1-0.3,0c0,0.1,0,0.1,0,0.1c0.1,0.1,0.5,0.4,0.7,0.3c0.1-0.1,0.1-0.4,0.1-0.5
			C8.5,242.7,8.4,242.6,8.4,242.6"/>
		<path id="path86" inkscape:connector-curvature="0" class="st10" d="M8.4,242.6c-0.3,0-0.5,0-0.7,0.1c0,0.1,0,0.2,0,0.2
			c0.1,0,0.2,0,0.2,0c-0.1,0-0.2,0.1-0.3,0c0,0.1,0,0.1,0,0.1c0.1,0.1,0.5,0.4,0.7,0.3c0.1-0.1,0.1-0.4,0.1-0.5
			C8.5,242.7,8.4,242.6,8.4,242.6z"/>
		<path id="path88" inkscape:connector-curvature="0" class="st0" d="M7.2,243C7.2,243,7.2,242.9,7.2,243c-0.1-0.1-0.2-0.1-0.3-0.2
			c0.1,0,0.2,0,0.3-0.1c0,0,0-0.1,0-0.1c-0.1-0.1-0.3-0.2-0.4-0.3c-0.1,0-0.4-0.2-0.5-0.1c0,0-0.1,0.1-0.1,0.1
			c0,0.1-0.1,0.3-0.1,0.5c0,0.2,0,0.6,0.2,0.6c0.2,0,0.4-0.1,0.6-0.2C7,243.1,7,243,7.2,243"/>
		<path id="path90" inkscape:connector-curvature="0" class="st10" d="M7.2,243C7.2,243,7.2,242.9,7.2,243c-0.1-0.1-0.2-0.1-0.3-0.2
			c0.1,0,0.2,0,0.3-0.1c0,0,0-0.1,0-0.1c-0.1-0.1-0.3-0.2-0.4-0.3c-0.1,0-0.4-0.2-0.5-0.1c0,0-0.1,0.1-0.1,0.1
			c0,0.1-0.1,0.3-0.1,0.5c0,0.2,0,0.6,0.2,0.6c0.2,0,0.4-0.1,0.6-0.2C7,243.1,7,243,7.2,243z"/>
		<path id="path92" inkscape:connector-curvature="0" class="st0" d="M7.3,242.7c0,0.1,0,0.2,0,0.3C7.6,243.2,7.7,242.6,7.3,242.7"
			/>
		<path id="path94" inkscape:connector-curvature="0" class="st10" d="M7.3,242.7c0,0.1,0,0.2,0,0.3C7.6,243.2,7.7,242.6,7.3,242.7z
			"/>
		<path id="path96" inkscape:connector-curvature="0" class="st1" d="M7.8,242.6c0,0-0.1,0.1,0,0.2s0.1,0,0.2,0.1s0,0.1,0,0.2
			c0,0.1,0.1,0.1,0.2,0.1c0.1,0,0.3,0,0.3,0l-0.1,0.3l-0.2,0.1l-0.6-0.3l0-0.2v-0.3"/>
		<path id="path98" inkscape:connector-curvature="0" class="st1" d="M6.2,242.1c0,0.2,0,0.5-0.1,0.7c0,0.3,0.1,0.3,0.4,0.3
			c0,0,0.3-0.1,0.3-0.1c0.1-0.2-0.1-0.1,0.1-0.3c0.2-0.1,0.5,0.1,0.5,0.3c0,0.1-0.2,0-0.3,0.1c-0.1,0.1-0.2,0.1-0.4,0.2
			c-0.1,0.1-0.5,0.2-0.7,0.1C5.7,243.1,6.1,242.4,6.2,242.1"/>
		<path id="path100" inkscape:connector-curvature="0" class="st2" d="M6.6,247.4c-0.4,0.1-0.6-0.2-0.7-0.4c-0.1,0-0.1,0.2,0,0.3
			c0.1,0.2,0.4,0.5,0.6,0.4C6.6,247.6,6.7,247.5,6.6,247.4"/>
		<path id="path102" inkscape:connector-curvature="0" class="st2" d="M8.6,246.9C8.6,246.9,8.6,246.9,8.6,246.9
			c0.1-0.2,0.2-0.4,0.3-0.6c-0.1-0.2-0.6-0.3-0.6,0c0.1,0,0.3,0,0.4,0.1C8.7,246.6,8.6,246.7,8.6,246.9"/>
		<path id="path104" inkscape:connector-curvature="0" class="st2" d="M6.8,246.9c0.1-0.2,0.1-0.3,0.2-0.5c0.1-0.1,0.2-0.1,0.1-0.3
			c0,0-0.1-0.1-0.2-0.1c-0.2-0.1-0.6,0-0.5,0.2c0.2,0,0.4-0.1,0.5,0C6.9,246.5,6.8,246.8,6.8,246.9"/>
		<path id="path106" inkscape:connector-curvature="0" class="st2" d="M8.5,245.3c-0.3-0.2-0.6-0.4-1.1-0.3c-0.1,0.1-0.1,0.3,0,0.4
			c0.1-0.1,0-0.3,0.2-0.3c0.3,0,0.6,0.2,0.8,0.2c0.1,0.2,0,0.3-0.1,0.4c-0.2,0.3-0.5,0.6-0.5,1c0.1,0.1,0.1-0.1,0.1-0.1
			c0.1-0.3,0.4-0.6,0.6-0.9c0.1-0.1,0.1-0.1,0.1-0.2C8.6,245.5,8.5,245.4,8.5,245.3"/>
		<path id="path108" inkscape:connector-curvature="0" class="st2" d="M4.7,245.5c-0.1,0.1-0.1,0.3-0.2,0.3c-0.2,0-0.1-0.3-0.1-0.5
			c-0.1,0.1-0.1,0.4,0,0.5c-0.1,0-0.1,0-0.2-0.1C4.2,246.2,4.8,246,4.7,245.5"/>
		<path id="path110" inkscape:connector-curvature="0" class="st2" d="M8.7,245.1c-0.1-0.3-0.3-0.5-0.7-0.6c0,0.1,0,0.2,0,0.3
			C8.3,244.9,8.5,245,8.7,245.1"/>
		<path id="path112" inkscape:connector-curvature="0" class="st2" d="M6.8,244.9c0.3-0.1,0.7-0.1,1.1-0.1c0-0.1,0-0.2,0-0.3
			C7.5,244.5,6.9,244.6,6.8,244.9"/>
		<path id="path114" inkscape:connector-curvature="0" class="st2" d="M6.8,244.7c0.2-0.4,0.8-0.4,1.3-0.4c0-0.1-0.1-0.1-0.1-0.2
			c-0.2-0.1-0.6-0.1-0.8,0c-0.1,0.1-0.2,0.3-0.3,0.4C6.7,244.6,6.5,244.7,6.8,244.7"/>
		<path id="path116" inkscape:connector-curvature="0" class="st11" d="M8.5,242.3c-0.2-0.4-0.4-0.7-0.7-1C8,241.5,8,242,8,242.4
			C8.3,242.5,8.4,242.4,8.5,242.3"/>
		<path id="path118" inkscape:connector-curvature="0" class="st2" d="M9.6,241c-0.2,0-0.4-0.3-0.6-0.3C9.1,240.9,9.4,241,9.6,241"
			/>
		<path id="path120" inkscape:connector-curvature="0" class="st2" d="M9.7,240.6c-0.2,0-0.4-0.1-0.6,0
			C9.2,240.7,9.6,240.7,9.7,240.6"/>
		<path id="path122" inkscape:connector-curvature="0" class="st2" d="M9.8,240.3c-0.2,0-0.5,0-0.7,0C9.3,240.4,9.7,240.4,9.8,240.3
			"/>
		<path id="path124" inkscape:connector-curvature="0" class="st6" d="M8.1,239.4c0-0.3,0.1-0.5,0.1-0.8c-0.1,0-0.2-0.1-0.3-0.1
			c0,0.2,0,0.6,0,0.9C8,239.4,8.1,239.5,8.1,239.4"/>
		<path id="path126" inkscape:connector-curvature="0" class="st3" d="M7.8,243.4c-0.1-0.1-0.2-0.2-0.3-0.2c-0.2,0-0.4,0-0.5,0.1
			c0,0,0,0,0,0C7.2,243.2,7.5,243.4,7.8,243.4"/>
		<path id="path128" inkscape:connector-curvature="0" class="st11" d="M6.5,241.7c0.1,0.3,0.3,0.4,0.6,0.6c0.2-0.3,0.4-0.7,0.6-1.1
			C7.2,241.3,6.8,241.5,6.5,241.7"/>
		<path id="path130" inkscape:connector-curvature="0" class="st2" d="M7.9,239.4c0-0.2,0-0.6,0-0.9c0.2,0,0.2,0,0.3,0.1
			c0,0.3-0.1,0.6-0.1,0.8C8.1,239.5,8,239.4,7.9,239.4z M5.4,240.8c0.1-1,0.3-1.8,0.5-2.6c0.6-0.2,1.3-0.2,1.9,0
			c-0.1,0.5-0.1,1.1-0.1,1.6c0,0.4,0,0.8-0.1,1.2C7,241,6.1,240.9,5.4,240.8z M7.8,240.8c0-0.4,0-0.8,0-1.2c0.2,0,0.3,0,0.4,0.1
			c0,0.4,0,0.8-0.1,1.2C8,240.9,7.9,240.9,7.8,240.8z M8.6,240.9c-0.1,0-0.2,0-0.2,0c0-0.3,0.1-0.7,0.1-1.1c0.1,0,0.2,0,0.3,0.1
			C8.8,240.2,8.8,240.6,8.6,240.9L8.6,240.9z M9.8,239.8c0.2,0.1,0.4,0.3,0.3,0.6c0,0.2-0.1,0.6-0.2,0.7c-0.1,0.1-0.2,0.2-0.4,0.1
			c-0.2-0.1-0.6-0.2-0.8-0.3c0.1-0.3,0.1-0.6,0.1-1c0.3,0,0.6,0.1,0.8,0c-0.2-0.1-0.4-0.1-0.5-0.1C9.4,239.7,9.6,239.8,9.8,239.8
			L9.8,239.8z M7.6,241.2c-0.2,0.4-0.3,0.8-0.6,1.1c-0.2-0.2-0.5-0.3-0.6-0.6C6.8,241.5,7.2,241.3,7.6,241.2z M8,242.4
			c0-0.4-0.1-0.9-0.2-1.2c0.2,0.3,0.4,0.7,0.7,1C8.4,242.4,8.3,242.5,8,242.4z M7.6,242.6c-0.1,0-0.2-0.1-0.3-0.1
			c0,0-0.1-0.1-0.1-0.1c0.3-0.3,0.4-0.8,0.6-1.2c0.1,0.4,0.1,0.8,0.1,1.2C7.8,242.4,7.7,242.6,7.6,242.6z M7.3,243
			c0-0.1,0-0.1,0-0.3C7.7,242.6,7.6,243.2,7.3,243z M6.9,243.1c-0.2,0.1-0.4,0.2-0.6,0.2c-0.3,0-0.2-0.3-0.2-0.6
			c0-0.2,0.1-0.4,0.1-0.5c0-0.1,0-0.1,0.1-0.1c0.1,0,0.4,0.1,0.5,0.1c0.2,0.1,0.3,0.2,0.4,0.3c0,0,0,0.1,0,0.1
			c-0.1,0-0.2,0.1-0.3,0.1c0.1,0,0.2,0,0.3,0.1c0,0,0,0,0,0.1C7,243,7,243.1,6.9,243.1z M5.4,243.4c-0.1-0.1,0.4-0.3,0.5-0.3
			c0,0.1,0,0.2,0,0.2C5.8,243.3,5.5,243.3,5.4,243.4z M7,243.3C7,243.3,7,243.3,7,243.3c0.1-0.1,0.3-0.2,0.5-0.2
			c0.1,0.1,0.2,0.2,0.3,0.2C7.5,243.4,7.2,243.2,7,243.3z M8.5,242.9c0,0.1,0,0.4-0.1,0.5c-0.2,0.1-0.5-0.2-0.7-0.3c0,0,0-0.1,0-0.1
			c0.1,0,0.2,0,0.3,0c-0.1,0-0.2,0-0.2,0c0-0.1,0-0.1,0-0.2c0.2-0.1,0.4-0.1,0.7-0.1C8.4,242.6,8.5,242.7,8.5,242.9z M5.2,243.2
			c0,0-0.3,0.4-0.4,0.4c-0.5-0.2-1-0.5-1.4-0.9c0.4-0.9,0.6-1.9,0.6-2.9c0.5-0.2,0.9-0.5,1.5-0.6c-0.1,0.5-0.1,1-0.2,1.4
			c-0.2,0.1-0.4,0-0.5,0c0,0.2,0.2,0.1,0.2,0.2c0,0.1-0.1,0.1-0.1,0.2c0.1,0,0.2-0.1,0.3-0.2c0.1,0.2,0,0.7,0,0.9c0,0,0,0.2,0.1,0.2
			c0.1,0,0-0.5,0-0.7c0-0.2,0-0.3,0.1-0.5c0.6,0.1,1.2,0.1,1.8,0.2c-0.1,0.1-0.3,0.1-0.5,0.2c-0.1,0.1-0.4,0.2-0.4,0.3
			c0,0.2,0.1,0.2,0.1,0.4c-0.3-0.2-0.4,0.2-0.4,0.4c-0.1,0.2-0.1,0.4-0.1,0.5C5.7,243,5.4,243.1,5.2,243.2L5.2,243.2z M8.2,243.6
			c0.4,0.2,0.5-0.8,0.3-1.1c0-0.1,0.1-0.1,0.1-0.2c-0.2-0.4-0.5-0.8-0.7-1.2c0.2,0.1,0.4,0,0.6,0.1c0.1,0,0.1,0.2,0.2,0.3
			c0.2,0.4,0.3,0.9,0.4,1.2c0,0.1,0.1,0.3,0.1,0.3c0,0.1-0.2,0.2-0.3,0.3c-0.2,0.2-0.3,0.3-0.4,0.4C8.4,243.7,8.2,243.7,8.2,243.6
			L8.2,243.6z M4.2,247.3c-0.2-0.2-0.2-0.6-0.1-0.9c0.4,0.2,0.8,0,0.8-0.4c0.2,0,0.1,0.2,0,0.3c-0.1,0.4,0.2,0.9,0,1.3
			C4.7,247.6,4.4,247.5,4.2,247.3L4.2,247.3z M5.6,248.5c-0.4-0.1-1-0.5-1.2-0.9c0.1,0,0.2,0.1,0.4,0.1c0.1,0,0.1,0,0.2,0
			c0.1,0,0.2,0.3,0.3,0.4c0.1,0.1,0.2,0.1,0.3,0.2C5.6,248.4,5.7,248.4,5.6,248.5C5.7,248.5,5.7,248.5,5.6,248.5z M8,248.4
			c-0.5,0.3-1.3,0.5-1.7,0.2c-0.4-0.2-0.9-0.5-1.1-0.9c0.2-0.4-0.1-0.8-0.1-1.2c0-0.2,0.1-0.4,0.1-0.6c-0.1-0.1-0.2-0.1-0.4-0.1
			c0,0.2-0.1,0.4-0.3,0.5c-0.3,0-0.5-0.2-0.5-0.5c0-0.3,0.2-0.8,0.6-0.8c0.1,0,0.2,0.2,0.3,0.2c0.1-0.2-0.1-0.2-0.1-0.3
			c0,0,0-0.1,0-0.2c0.1-0.3,0.2-0.6,0.4-0.8c0.2-0.3,0.5-0.3,0.9-0.3c0.1,0.1,0.3,0.1,0.5,0.1c-0.2,0.1-0.4,0.3-0.5,0.4
			c-0.2,0.2-0.4,0.4-0.4,0.7c0.3-0.5,0.6-0.9,1.2-1.1c0.5-0.2,1,0.1,1.3,0.3c0.1,0.1,0.2,0.3,0.3,0.4c0.4,0.6,0.6,1.4,0.5,2.1
			c0,0.3,0,0.6-0.1,0.8c-0.1,0.2-0.5,0.4-0.7,0.2c0,0.2,0.2,0.4,0.4,0.3C8.4,248,8.2,248.3,8,248.4L8,248.4z M8.8,241.2
			c0.4,0.2,1,0.5,1.3,0c0.1-0.2,0.2-0.5,0.2-0.7c0.1-0.3-0.1-0.8-0.3-0.9c-0.2-0.1-0.5-0.1-0.8,0c0,0-0.1,0.1-0.1,0.1
			c-0.2,0-0.4,0-0.6-0.1c0-0.2-0.1-0.2-0.2-0.2c-0.1-0.3,0.1-0.6,0.1-0.9c0-0.2-0.3-0.2-0.4-0.2c0-0.1,0-0.2,0-0.3
			c0-0.1-0.2-0.2-0.4-0.2c-0.5-0.1-1.3-0.1-1.8,0.1c-0.1,0.3-0.3,0.8-0.4,1.2c-0.5-0.1-0.9,0.2-1.3,0.4c-0.1,0.1-0.3,0.1-0.4,0.2
			c0,0.1,0,0.3,0,0.5c0,0.5-0.1,0.9-0.2,1.4c-0.1,0.2-0.2,0.4-0.2,0.6c-0.1,0.2-0.2,0.4-0.2,0.6c0,0.3,0.2,0.3,0.4,0.4
			c0.3,0.2,0.5,0.3,0.8,0.5c0.1,0.1,0.3,0.2,0.4,0.2c0.1,0.1-0.1,0.3-0.1,0.4c-0.1,0.1-0.1,0.3-0.1,0.4c-0.2,0-0.4,0.2-0.5,0.3
			c-0.2,0.3-0.3,0.8-0.2,1.1c0,0,0.1,0.1,0.1,0.1c0,0.1,0,0.2,0,0.3c0,0.5,0.1,0.9,0.4,1.1c0.1,0.5,0.6,0.7,1.1,1
			c0.2,0.1,0.4,0.2,0.5,0.2c0.7,0.3,1.7,0.2,2.3-0.2c0.2-0.2,0.6-0.6,0.8-0.8c0.4-0.7,0.3-2,0.1-2.9c0-0.1-0.1-0.3-0.2-0.4
			c0-0.1-0.2-0.3-0.2-0.4c0-0.1,0.3-0.3,0.4-0.4c0.1-0.1,0.4-0.3,0.4-0.4c0-0.2-0.1-0.4-0.1-0.5C9.2,242.2,9,241.7,8.8,241.2"/>
		<path id="path132" inkscape:connector-curvature="0" class="st7" d="M6.4,244.8c0,0,0.1,0.1,0.3,0c0,0-0.2,0-0.2-0.3l-0.1,0
			C6.5,244.5,6.4,244.8,6.4,244.8"/>
		<path id="path134" inkscape:connector-curvature="0" class="st12" d="M7.7,242.3C7.7,242.2,7.7,242.2,7.7,242.3
			c-0.1-0.1-0.2,0-0.2,0S7.6,242.3,7.7,242.3C7.7,242.3,7.7,242.3,7.7,242.3"/>
		<path id="path136" inkscape:connector-curvature="0" class="st12" d="M7.8,241.9C7.8,241.8,7.8,241.8,7.8,241.9
			c-0.1-0.1-0.2,0-0.2,0C7.6,241.9,7.7,242,7.8,241.9C7.8,242,7.8,241.9,7.8,241.9"/>
	</g>
</g>
</svg>
